<svg xmlns="http://www.w3.org/2000/svg" viewBox="0 0 660.63 173.799"><path d="M42.969,68.555l-5.7-15.86H15.43L9.844,68.555H0L21.367,11.211H31.523L52.891,68.555ZM34.805,44.648,29.453,29.1q-.585-1.561-1.621-4.922t-1.426-4.922A87.558,87.558,0,0,1,23.32,29.766L18.164,44.648Z" transform="translate(0 -7.773)" fill="#1c271e"/><path d="M96.957,68.555H87.738V41.992q0-5-2.011-7.461T79.34,32.07q-5.821,0-8.516,3.438T68.129,47.031V68.555h-9.18v-43.2h7.188l1.289,5.664H67.9a12.775,12.775,0,0,1,5.546-4.766,18.6,18.6,0,0,1,7.969-1.68q15.546,0,15.547,15.821Z" transform="translate(0 -7.773)" fill="#1c271e"/><path d="M134.594,68.555l-1.836-6.016h-.313a17.685,17.685,0,0,1-6.289,5.371,19.9,19.9,0,0,1-8.125,1.426q-6.368,0-9.941-3.438t-3.574-9.726q0-6.679,4.961-10.078t15.117-3.711l7.461-.235v-2.3q0-4.14-1.934-6.192t-6-2.05a20.759,20.759,0,0,0-6.367.976,48.137,48.137,0,0,0-5.86,2.3L108.93,28.32a32.01,32.01,0,0,1,7.695-2.793,35.467,35.467,0,0,1,7.891-.957q8.241,0,12.441,3.594t4.2,11.289v29.1Zm-13.672-6.25a11.37,11.37,0,0,0,8.027-2.793q3.027-2.793,3.028-7.832V47.93l-5.547.234q-6.486.234-9.434,2.168a6.585,6.585,0,0,0-2.949,5.918,5.771,5.771,0,0,0,1.719,4.473A7.385,7.385,0,0,0,120.922,62.305Z" transform="translate(0 -7.773)" fill="#1c271e"/><path d="M161.1,68.555h-9.18V7.773h9.18Z" transform="translate(0 -7.773)" fill="#1c271e"/><path d="M166.775,25.352h10l8.789,24.492a46.5,46.5,0,0,1,2.656,9.844h.313a41.037,41.037,0,0,1,1.289-5.215q.938-3.066,9.922-29.121h9.922L191.189,74.3q-5.038,13.476-16.8,13.476a26.407,26.407,0,0,1-5.937-.664V79.844a21.528,21.528,0,0,0,4.726.469q6.641,0,9.336-7.7l1.6-4.062Z" transform="translate(0 -7.773)" fill="#1c271e"/><path d="M233.89,61.914a22.3,22.3,0,0,0,6.718-1.055v6.914a18.472,18.472,0,0,1-3.925,1.114,27.1,27.1,0,0,1-4.981.449q-13.047,0-13.047-13.75V32.305h-5.9V28.242l6.328-3.359,3.125-9.141h5.664v9.61h12.305v6.953H227.874V55.43a6.486,6.486,0,0,0,1.66,4.9A6.052,6.052,0,0,0,233.89,61.914Z" transform="translate(0 -7.773)" fill="#1c271e"/><path d="M246.71,13.906a5.082,5.082,0,0,1,1.348-3.789,5.252,5.252,0,0,1,3.847-1.328,5.141,5.141,0,0,1,3.77,1.328,5.086,5.086,0,0,1,1.347,3.789,4.991,4.991,0,0,1-1.347,3.692,5.1,5.1,0,0,1-3.77,1.347,5.206,5.206,0,0,1-3.847-1.347A4.988,4.988,0,0,1,246.71,13.906Zm9.727,54.649h-9.18v-43.2h9.18Z" transform="translate(0 -7.773)" fill="#1c271e"/><path d="M285.032,69.336q-9.805,0-14.9-5.723t-5.1-16.425q0-10.9,5.332-16.758t15.41-5.86a28.894,28.894,0,0,1,12.305,2.539l-2.773,7.383a27.815,27.815,0,0,0-9.61-2.265q-11.211,0-11.211,14.882,0,7.266,2.793,10.918t8.184,3.653a23.481,23.481,0,0,0,11.6-3.047v8.008a18.123,18.123,0,0,1-5.253,2.07A31.59,31.59,0,0,1,285.032,69.336Z" transform="translate(0 -7.773)" fill="#1c271e"/><path d="M333.091,68.555l-1.836-6.016h-.313a17.685,17.685,0,0,1-6.289,5.371,19.9,19.9,0,0,1-8.125,1.426q-6.368,0-9.941-3.438t-3.574-9.726q0-6.679,4.961-10.078t15.117-3.711l7.461-.235v-2.3q0-4.14-1.934-6.192t-6-2.05a20.759,20.759,0,0,0-6.367.976,48.122,48.122,0,0,0-5.859,2.3l-2.969-6.563a32.025,32.025,0,0,1,7.695-2.793,35.467,35.467,0,0,1,7.891-.957q8.241,0,12.441,3.594t4.2,11.289v29.1Zm-13.672-6.25a11.37,11.37,0,0,0,8.027-2.793q3.027-2.793,3.028-7.832V47.93l-5.547.234q-6.485.234-9.434,2.168a6.585,6.585,0,0,0-2.949,5.918,5.771,5.771,0,0,0,1.719,4.473A7.385,7.385,0,0,0,319.419,62.305Z" transform="translate(0 -7.773)" fill="#1c271e"/><path d="M359.6,68.555h-9.18V7.773h9.18Z" transform="translate(0 -7.773)" fill="#1c271e"/><path d="M427.409,53.047q0,7.617-5.508,11.953t-15.195,4.336q-9.688,0-15.859-3.008V57.5a43.009,43.009,0,0,0,8.3,2.891,35.212,35.212,0,0,0,8.184,1.054q5.546,0,8.184-2.109a6.879,6.879,0,0,0,2.636-5.664,7.1,7.1,0,0,0-2.422-5.43q-2.423-2.226-10-5.273-7.812-3.165-11.015-7.227a15.291,15.291,0,0,1-3.2-9.765,13.677,13.677,0,0,1,5.078-11.25q5.077-4.1,13.633-4.1a40.053,40.053,0,0,1,16.328,3.594l-2.969,7.617a35.679,35.679,0,0,0-13.594-3.2q-4.531,0-6.875,1.972a6.482,6.482,0,0,0-2.343,5.215,7.342,7.342,0,0,0,.937,3.809,9.57,9.57,0,0,0,3.086,2.988,52.072,52.072,0,0,0,7.734,3.711,42.314,42.314,0,0,1,9.219,4.883,14.382,14.382,0,0,1,4.3,5.117A15.386,15.386,0,0,1,427.409,53.047Z" transform="translate(0 -7.773)" fill="#1c271e"/><path d="M453.806,69.336q-9.805,0-14.9-5.723t-5.1-16.425q0-10.9,5.332-16.758t15.41-5.86a28.9,28.9,0,0,1,12.305,2.539l-2.774,7.383a27.815,27.815,0,0,0-9.609-2.265q-11.213,0-11.211,14.882,0,7.266,2.793,10.918t8.183,3.653a23.488,23.488,0,0,0,11.6-3.047v8.008a18.14,18.14,0,0,1-5.254,2.07A31.568,31.568,0,0,1,453.806,69.336Z" transform="translate(0 -7.773)" fill="#1c271e"/><path d="M473.238,13.906a5.086,5.086,0,0,1,1.348-3.789,5.253,5.253,0,0,1,3.848-1.328,5.14,5.14,0,0,1,3.769,1.328,5.082,5.082,0,0,1,1.348,3.789A4.988,4.988,0,0,1,482.2,17.6a5.1,5.1,0,0,1-3.769,1.347,5.207,5.207,0,0,1-3.848-1.347A4.992,4.992,0,0,1,473.238,13.906Zm9.727,54.649h-9.18v-43.2h9.18Z" transform="translate(0 -7.773)" fill="#1c271e"/><path d="M513.005,69.336q-10.078,0-15.762-5.879T491.56,47.266q0-10.585,5.273-16.641t14.492-6.055q8.555,0,13.516,5.2t4.961,14.3v4.96H501.013q.195,6.291,3.4,9.668t9.024,3.379a33.3,33.3,0,0,0,7.128-.722,37.364,37.364,0,0,0,7.09-2.4v7.461a28.159,28.159,0,0,1-6.8,2.266A41.739,41.739,0,0,1,513.005,69.336Zm-1.68-37.813a9.223,9.223,0,0,0-7.012,2.774q-2.635,2.774-3.144,8.086h19.609q-.078-5.352-2.578-8.106A8.819,8.819,0,0,0,511.325,31.523Z" transform="translate(0 -7.773)" fill="#1c271e"/><path d="M576.7,68.555h-9.218V41.992q0-5-2.012-7.461t-6.387-2.461q-5.822,0-8.515,3.438t-2.7,11.523V68.555h-9.179v-43.2h7.187l1.289,5.664h.469a12.778,12.778,0,0,1,5.547-4.766,18.593,18.593,0,0,1,7.968-1.68q15.548,0,15.547,15.821Z" transform="translate(0 -7.773)" fill="#1c271e"/><path d="M605.131,69.336q-9.805,0-14.9-5.723t-5.1-16.425q0-10.9,5.332-16.758t15.41-5.86a28.9,28.9,0,0,1,12.3,2.539L615.4,34.492a27.815,27.815,0,0,0-9.609-2.265q-11.212,0-11.211,14.882,0,7.266,2.793,10.918t8.184,3.653a23.484,23.484,0,0,0,11.6-3.047v8.008a18.129,18.129,0,0,1-5.254,2.07A31.568,31.568,0,0,1,605.131,69.336Z" transform="translate(0 -7.773)" fill="#1c271e"/><path d="M643.833,69.336q-10.078,0-15.762-5.879t-5.683-16.191q0-10.585,5.273-16.641t14.492-6.055q8.554,0,13.516,5.2t4.961,14.3v4.96H631.841q.2,6.291,3.4,9.668t9.024,3.379a33.308,33.308,0,0,0,7.129-.722,37.332,37.332,0,0,0,7.089-2.4v7.461a28.152,28.152,0,0,1-6.8,2.266A41.735,41.735,0,0,1,643.833,69.336Zm-1.68-37.813a9.221,9.221,0,0,0-7.011,2.774q-2.637,2.774-3.145,8.086h19.609q-.078-5.352-2.578-8.106A8.818,8.818,0,0,0,642.153,31.523Z" transform="translate(0 -7.773)" fill="#1c271e"/><path d="M204.066,181.572a17.793,17.793,0,0,1-7.373-1.318v-4.3a29.3,29.3,0,0,0,7.275.977q11.817,0,11.817-12.891V92.168h4.98v71.387Q220.765,181.572,204.066,181.572Z" transform="translate(0 -7.773)" fill="#690727"/><path d="M298.052,127.764q0,16.992-8.5,26.88t-23.438,9.887q-14.9,0-23.389-9.887t-8.5-26.978q0-17.04,8.569-26.831t23.414-9.79q14.942,0,23.388,9.839T298.052,127.764Zm-58.4,0q0,15.332,6.836,23.706t19.629,8.374q12.891,0,19.7-8.3t6.813-23.779q0-15.429-6.813-23.658t-19.6-8.227q-12.744,0-19.654,8.3T239.653,127.764Z" transform="translate(0 -7.773)" fill="#690727"/><path d="M364.288,92.168v46.191q0,12.306-7.129,19.239t-19.873,6.933q-12.4,0-19.36-6.958t-6.958-19.409v-46H316v46.191q0,10.3,5.713,16.04t16.162,5.738q10.2,0,15.82-5.64t5.616-15.649V92.168Z" transform="translate(0 -7.773)" fill="#690727"/><path d="M385.832,132.451v31.1h-4.98V92.168h16.992q13.281,0,19.629,4.907t6.347,14.771a19.3,19.3,0,0,1-3.784,12.109q-3.785,4.932-11.5,7.08l19.385,32.52h-5.957l-18.408-31.1Zm0-4.3h13.623q9.035,0,14.014-4.028t4.98-11.89q0-8.154-4.883-11.865T397.648,96.66H385.832Z" transform="translate(0 -7.773)" fill="#690727"/><path d="M489.979,163.555H484.95l-42.285-63.379h-.391q.587,11.328.586,17.09v46.289h-4.785V92.168h4.981l42.236,63.281h.293q-.44-8.788-.439-16.7V92.168h4.833Z" transform="translate(0 -7.773)" fill="#690727"/><path d="M543.64,138.359h-29l-9.961,25.2h-5.518l28.711-71.68h3.174l28.125,71.68h-5.615Zm-27.2-4.492h25.537l-9.716-25.732q-1.223-3.027-2.93-8.4a78.458,78.458,0,0,1-2.881,8.5Z" transform="translate(0 -7.773)" fill="#690727"/><path d="M568.354,163.555V92.168h4.981v66.7h34.033v4.688Z" transform="translate(0 -7.773)" fill="#690727"/><path d="M659.517,145.146q0,8.937-6.567,14.161t-17.457,5.224q-13.085,0-20.068-2.881v-4.98q7.715,3.272,19.678,3.271,8.789,0,13.941-4.028a12.777,12.777,0,0,0,5.15-10.571,12.2,12.2,0,0,0-1.709-6.714,15.566,15.566,0,0,0-5.566-4.858,68.64,68.64,0,0,0-11.328-4.737q-10.937-3.759-15.112-8.13T616.3,109.258A16.006,16.006,0,0,1,622.579,96.2q6.273-5.053,16.137-5.053a47.228,47.228,0,0,1,18.9,3.808l-1.806,4.3a44.073,44.073,0,0,0-16.993-3.711q-7.91,0-12.6,3.662a11.966,11.966,0,0,0-4.688,9.961,13.038,13.038,0,0,0,1.442,6.494,13.228,13.228,0,0,0,4.711,4.566,64.5,64.5,0,0,0,11.23,4.858,60.52,60.52,0,0,1,12.549,5.591,17.947,17.947,0,0,1,6.129,6.152A16.8,16.8,0,0,1,659.517,145.146Z" transform="translate(0 -7.773)" fill="#690727"/></svg>