<svg xmlns="http://www.w3.org/2000/svg" viewBox="0 0 467.807 112.598"><path d="M7.376,103.711A17.809,17.809,0,0,1,0,102.393V98.1a29.293,29.293,0,0,0,7.275.976q11.817,0,11.817-12.89V14.307h4.98V85.693Q24.075,103.711,7.376,103.711Z" style="fill:#690727"/><path d="M101.362,49.9q0,16.992-8.5,26.88T69.428,86.67q-14.893,0-23.388-9.888t-8.5-26.977q0-17.041,8.569-26.831t23.414-9.79q14.942,0,23.389,9.838T101.362,49.9Zm-58.4,0q0,15.333,6.836,23.706t19.629,8.374q12.891,0,19.7-8.3T95.942,49.9q0-15.429-6.813-23.657t-19.6-8.227q-12.744,0-19.654,8.3T42.963,49.9Z" style="fill:#690727"/><path d="M167.6,14.307V60.5q0,12.3-7.129,19.238T140.6,86.67q-12.4,0-19.36-6.958T114.278,60.3v-46h5.029V60.5q0,10.3,5.713,16.04t16.162,5.737q10.2,0,15.82-5.639t5.616-15.65V14.307Z" style="fill:#690727"/><path d="M189.142,54.59v31.1h-4.98V14.307h16.992q13.281,0,19.629,4.907t6.347,14.77a19.3,19.3,0,0,1-3.784,12.11q-3.784,4.932-11.5,7.08l19.385,32.519h-5.957l-18.408-31.1Zm0-4.3h13.623q9.035,0,14.014-4.028t4.98-11.89q0-8.154-4.883-11.865T200.958,18.8H189.142Z" style="fill:#690727"/><path d="M293.29,85.693h-5.03L245.975,22.314h-.391q.587,11.33.586,17.09V85.693h-4.785V14.307h4.981L288.6,77.588h.293q-.44-8.788-.439-16.7V14.307h4.834Z" style="fill:#690727"/><path d="M346.95,60.5h-29l-9.961,25.2h-5.518l28.711-71.679h3.174l28.125,71.679h-5.615Zm-27.2-4.492H345.29l-9.717-25.733q-1.222-3.027-2.93-8.4a78.458,78.458,0,0,1-2.881,8.5Z" style="fill:#690727"/><path d="M371.665,85.693V14.307h4.98v66.7h34.033v4.687Z" style="fill:#690727"/><path d="M462.827,67.285q0,8.936-6.567,14.16T438.8,86.67q-13.085,0-20.068-2.881v-4.98q7.714,3.272,19.678,3.271,8.789,0,13.941-4.028A12.779,12.779,0,0,0,457.5,67.48a12.194,12.194,0,0,0-1.709-6.713,15.577,15.577,0,0,0-5.566-4.859A68.652,68.652,0,0,0,438.9,51.172q-10.936-3.759-15.111-8.13T419.614,31.4a16.006,16.006,0,0,1,6.275-13.061q6.273-5.054,16.137-5.054a47.229,47.229,0,0,1,18.9,3.809l-1.806,4.3a44.072,44.072,0,0,0-16.992-3.711q-7.911,0-12.6,3.662a11.964,11.964,0,0,0-4.688,9.961,13.038,13.038,0,0,0,1.442,6.494,13.217,13.217,0,0,0,4.711,4.565,64.519,64.519,0,0,0,11.23,4.859,60.52,60.52,0,0,1,12.549,5.591A17.939,17.939,0,0,1,460.9,58.96,16.8,16.8,0,0,1,462.827,67.285Z" style="fill:#690727"/></svg>