<svg xmlns="http://www.w3.org/2000/svg" viewBox="0 0 192 40"><path d="M14.744,30.442,5.291,7.025h-.14q.139,2.151.14,4.406V30.442h-1.7V5.083h2.74L15.316,27.39h.1L24.406,5.083h2.671V30.442H25.291V11.223q0-2.012.208-4.163H25.36L15.872,30.442Z" fill="#690727"/><path d="M46.577,21.492h-10.3l-3.539,8.95h-1.96l10.2-25.463H42.1l9.991,25.463h-2Zm-9.662-1.6h9.072l-3.452-9.142Q42.1,9.68,41.494,7.771a27.787,27.787,0,0,1-1.023,3.018Z" fill="#690727"/><path d="M64.763,17.658h9.349v11.57a20.981,20.981,0,0,1-8.274,1.561q-6,0-9.2-3.391t-3.2-9.6a14.421,14.421,0,0,1,1.587-6.86,11.119,11.119,0,0,1,4.544-4.623,13.836,13.836,0,0,1,6.791-1.63A17.5,17.5,0,0,1,73.8,6.21l-.711,1.6a16.083,16.083,0,0,0-6.834-1.527,10.449,10.449,0,0,0-7.953,3.1,11.634,11.634,0,0,0-2.941,8.353q0,5.724,2.793,8.612t8.2,2.888a15.9,15.9,0,0,0,5.951-.989V19.324H64.763Z" fill="#690727"/><path d="M93.084,21.492H82.78l-3.539,8.95h-1.96L87.48,4.979h1.128L98.6,30.442h-2Zm-9.662-1.6h9.072l-3.452-9.142Q88.608,9.68,88,7.771a28,28,0,0,1-1.023,3.018Z" fill="#690727"/><path d="M118.893,30.442H101.27V29.124L116.117,6.748H101.945V5.083h16.549V6.4L103.61,28.777h15.283Z" fill="#690727"/><path d="M123.284,30.442V5.083h1.77V30.442Z" fill="#690727"/><path d="M150.052,30.442h-1.786L133.243,7.927H133.1q.208,4.024.209,6.072V30.442h-1.7V5.083h1.77l15,22.48h.1q-.156-3.123-.156-5.933V5.083h1.717Z" fill="#690727"/><path d="M170.5,30.442H156.64V5.083H170.5v1.63h-12.09v9.592h11.413v1.631H158.409V28.812H170.5Z" fill="#690727"/><path d="M190.1,23.9a6.085,6.085,0,0,1-2.333,5.03,9.671,9.671,0,0,1-6.2,1.856,19.433,19.433,0,0,1-7.129-1.023V28a18.053,18.053,0,0,0,6.991,1.162,7.833,7.833,0,0,0,4.952-1.431,4.54,4.54,0,0,0,1.83-3.756,4.327,4.327,0,0,0-.608-2.385,5.534,5.534,0,0,0-1.977-1.726,24.362,24.362,0,0,0-4.025-1.682,13.778,13.778,0,0,1-5.368-2.888,5.743,5.743,0,0,1-1.483-4.137,5.684,5.684,0,0,1,2.229-4.64,8.846,8.846,0,0,1,5.733-1.8,16.777,16.777,0,0,1,6.713,1.353L188.786,7.6a15.655,15.655,0,0,0-6.036-1.319,7.082,7.082,0,0,0-4.476,1.3,4.252,4.252,0,0,0-1.665,3.539,4.625,4.625,0,0,0,.512,2.307,4.706,4.706,0,0,0,1.674,1.622,22.89,22.89,0,0,0,3.989,1.726,21.458,21.458,0,0,1,4.458,1.986,6.372,6.372,0,0,1,2.177,2.185A5.968,5.968,0,0,1,190.1,23.9Z" fill="#690727"/></svg>