<svg xmlns="http://www.w3.org/2000/svg" viewBox="0 0 265.785 112.598"><path d="M62.012,85.693h-5.03L14.7,22.314h-.39q.585,11.33.586,17.09V85.693H10.107V14.307h4.981L57.324,77.588h.293q-.44-8.788-.439-16.7V14.307h4.834Z" style="fill:#690727"/><path d="M118.189,85.693H79.176V14.307h39.013V18.9H84.156v27h32.129v4.59H84.156V81.1h34.033Z" style="fill:#690727"/><path d="M191.207,85.693h-4.1L171.432,30.615q-1.954-6.786-2.93-11.133-.783,4.248-2.223,9.766T150.533,85.693h-4.2L126.705,14.307h5.225l12.5,46q.732,2.783,1.367,5.151t1.146,4.443q.513,2.076.928,4t.758,3.882q1.172-6.641,4.98-20.166l12.207-43.31h5.518l14.307,49.707q2.49,8.593,3.564,13.867.633-3.516,1.635-7.471t15.064-56.1h5.03Z" style="fill:#690727"/><path d="M260.805,67.285q0,8.936-6.567,14.16T236.781,86.67q-13.085,0-20.068-2.881v-4.98q7.715,3.272,19.678,3.271,8.789,0,13.941-4.028a12.779,12.779,0,0,0,5.15-10.572,12.194,12.194,0,0,0-1.709-6.713,15.577,15.577,0,0,0-5.566-4.859,68.652,68.652,0,0,0-11.328-4.736q-10.936-3.759-15.111-8.13T217.592,31.4a16.006,16.006,0,0,1,6.275-13.061Q230.14,13.281,240,13.281a47.229,47.229,0,0,1,18.9,3.809l-1.806,4.3A44.072,44.072,0,0,0,240.1,17.676q-7.911,0-12.6,3.662a11.964,11.964,0,0,0-4.688,9.961,13.038,13.038,0,0,0,1.442,6.494,13.217,13.217,0,0,0,4.711,4.565,64.519,64.519,0,0,0,11.23,4.859,60.52,60.52,0,0,1,12.549,5.591,17.939,17.939,0,0,1,6.129,6.152A16.8,16.8,0,0,1,260.805,67.285Z" style="fill:#690727"/></svg>