<svg xmlns="http://www.w3.org/2000/svg" viewBox="0 0 925.617 80"><path d="M62.813,68.555H49.023l-7.734-30q-.43-1.6-1.465-6.621T38.633,25.2q-.234,2.111-1.172,6.778t-1.445,6.66l-7.7,29.922H14.57L0,11.445H11.914l7.305,31.172q1.912,8.634,2.773,14.961.234-2.226,1.074-6.894t1.582-7.246l8.321-31.993H44.414l8.32,31.993Q53.281,45.586,54.1,50t1.25,7.578q.389-3.047,1.25-7.6t1.562-7.363L65.43,11.445H77.344Z" transform="translate(0 -7.773)" fill="#690727"/><path d="M82.806,13.594q0-5.82,6.485-5.821t6.484,5.821a5.675,5.675,0,0,1-1.621,4.316,6.813,6.813,0,0,1-4.863,1.543Q82.805,19.453,82.806,13.594ZM95.228,68.555H83.314V24.883H95.228Z" transform="translate(0 -7.773)" fill="#690727"/><path d="M117.514,68.555H105.6V7.773h11.914Z" transform="translate(0 -7.773)" fill="#690727"/><path d="M148.107,69.336q-10.547,0-16.484-5.82t-5.937-16.485q0-10.976,5.488-16.972t15.176-6q9.256,0,14.414,5.273t5.156,14.57v5.782H137.756a11.464,11.464,0,0,0,3.008,7.929q2.813,2.853,7.89,2.852a32.753,32.753,0,0,0,7.461-.821,37.286,37.286,0,0,0,7.344-2.617V66.25a27.993,27.993,0,0,1-6.68,2.324A42.1,42.1,0,0,1,148.107,69.336Zm-1.679-36.8a7.558,7.558,0,0,0-5.938,2.4,11.121,11.121,0,0,0-2.461,6.817h16.719a9.935,9.935,0,0,0-2.3-6.817A7.8,7.8,0,0,0,146.428,32.539Z" transform="translate(0 -7.773)" fill="#690727"/><path d="M167.158,24.883h13.047l8.242,24.57a34.146,34.146,0,0,1,1.445,7.578h.234a33.5,33.5,0,0,1,1.68-7.578l8.086-24.57h12.774L194.189,74.141a21.336,21.336,0,0,1-7.246,10.234,18.289,18.289,0,0,1-11,3.4,27.631,27.631,0,0,1-6.055-.664V77.656a20.39,20.39,0,0,0,4.688.508,8.462,8.462,0,0,0,5.527-1.934,12.538,12.538,0,0,0,3.691-5.839l.7-2.149Z" transform="translate(0 -7.773)" fill="#690727"/><path d="M275.6,68.555l-4.14-13.594H250.634l-4.14,13.594H233.447L253.6,11.211h14.805l20.234,57.344Zm-7.031-23.75q-5.742-18.477-6.465-20.9t-1.035-3.828q-1.289,5-7.383,24.727Z" transform="translate(0 -7.773)" fill="#690727"/><path d="M334.645,68.555H322.73V43.047q0-4.726-1.679-7.09T315.7,33.594q-5,0-7.226,3.34t-2.227,11.074V68.555H294.332V24.883h9.1l1.6,5.586h.664a12.582,12.582,0,0,1,5.489-4.785,18.7,18.7,0,0,1,7.949-1.621q7.617,0,11.562,4.121t3.946,11.894Z" transform="translate(0 -7.773)" fill="#690727"/><path d="M372.508,68.555l-2.3-5.938h-.313a17.59,17.59,0,0,1-6.191,5.254,20.006,20.006,0,0,1-8.3,1.465q-6.289,0-9.9-3.594t-3.614-10.234q0-6.953,4.864-10.254T361.415,41.6l7.578-.235V39.453q0-6.641-6.8-6.64-5.235,0-12.305,3.164l-3.945-8.047a35.5,35.5,0,0,1,16.719-3.946q8.788,0,13.476,3.829t4.688,11.64v29.1ZM368.993,48.32l-4.61.157q-5.2.156-7.734,1.875a5.888,5.888,0,0,0-2.539,5.234q0,5.038,5.781,5.039a9.155,9.155,0,0,0,6.621-2.383,8.366,8.366,0,0,0,2.481-6.328Z" transform="translate(0 -7.773)" fill="#690727"/><path d="M402.92,68.555H391.006V7.773H402.92Z" transform="translate(0 -7.773)" fill="#690727"/><path d="M408.138,24.883h13.047l8.242,24.57a34.143,34.143,0,0,1,1.446,7.578h.234a33.445,33.445,0,0,1,1.68-7.578l8.086-24.57h12.773L435.169,74.141a21.336,21.336,0,0,1-7.246,10.234,18.285,18.285,0,0,1-11,3.4,27.622,27.622,0,0,1-6.054-.664V77.656a20.381,20.381,0,0,0,4.687.508,8.462,8.462,0,0,0,5.527-1.934,12.54,12.54,0,0,0,3.692-5.839l.7-2.149Z" transform="translate(0 -7.773)" fill="#690727"/><path d="M479.135,59.844a25.811,25.811,0,0,0,7.5-1.367v8.867A26.746,26.746,0,0,1,475.7,69.336q-7.147,0-10.41-3.613t-3.262-10.84V33.828h-5.7V28.789l6.563-3.984,3.437-9.219h7.617v9.3h12.227v8.945H473.939V54.883a4.649,4.649,0,0,0,1.426,3.75A5.627,5.627,0,0,0,479.135,59.844Z" transform="translate(0 -7.773)" fill="#690727"/><path d="M492.987,13.594q0-5.82,6.485-5.821t6.484,5.821a5.675,5.675,0,0,1-1.621,4.316,6.813,6.813,0,0,1-4.863,1.543Q492.986,19.453,492.987,13.594Zm12.422,54.961H493.5V24.883h11.914Z" transform="translate(0 -7.773)" fill="#690727"/><path d="M533.844,69.336q-20.391,0-20.391-22.383,0-11.133,5.547-17.012t15.9-5.878a30.327,30.327,0,0,1,13.594,2.968l-3.515,9.219q-2.812-1.133-5.235-1.855a16.86,16.86,0,0,0-4.844-.723q-9.3,0-9.3,13.2,0,12.813,9.3,12.813a21.2,21.2,0,0,0,6.368-.918,22.962,22.962,0,0,0,5.859-2.872v10.2a19.219,19.219,0,0,1-5.84,2.539A32.833,32.833,0,0,1,533.844,69.336Z" transform="translate(0 -7.773)" fill="#690727"/><path d="M583.424,68.555l-2.3-5.938h-.312a17.592,17.592,0,0,1-6.192,5.254,20,20,0,0,1-8.3,1.465q-6.289,0-9.9-3.594T552.8,55.508q0-6.953,4.863-10.254T572.33,41.6l7.578-.235V39.453q0-6.641-6.8-6.64-5.235,0-12.3,3.164l-3.946-8.047a35.507,35.507,0,0,1,16.719-3.946q8.788,0,13.477,3.829t4.687,11.64v29.1ZM579.908,48.32l-4.609.157q-5.2.156-7.735,1.875a5.888,5.888,0,0,0-2.539,5.234q0,5.038,5.782,5.039a9.158,9.158,0,0,0,6.621-2.383,8.369,8.369,0,0,0,2.48-6.328Z" transform="translate(0 -7.773)" fill="#690727"/><path d="M613.836,68.555H601.922V7.773h11.914Z" transform="translate(0 -7.773)" fill="#690727"/><path d="M681.766,52.7A14.763,14.763,0,0,1,676.2,64.883q-5.566,4.454-15.488,4.453A36.371,36.371,0,0,1,644.539,65.9V54.648a66.566,66.566,0,0,0,9.785,3.633,28.962,28.962,0,0,0,7.324,1.055,10.421,10.421,0,0,0,6.114-1.523,5.212,5.212,0,0,0,2.129-4.532,5,5,0,0,0-.938-2.988,10.51,10.51,0,0,0-2.754-2.52,71.321,71.321,0,0,0-7.4-3.867,35.056,35.056,0,0,1-7.852-4.726,17.715,17.715,0,0,1-4.179-5.274,15.041,15.041,0,0,1-1.563-7.031q0-7.578,5.137-11.914t14.2-4.336a33.532,33.532,0,0,1,8.5,1.055,58.528,58.528,0,0,1,8.457,2.968l-3.906,9.415a57.173,57.173,0,0,0-7.559-2.618,24.369,24.369,0,0,0-5.879-.742,7.782,7.782,0,0,0-5.273,1.6,5.28,5.28,0,0,0-1.836,4.179,5.167,5.167,0,0,0,.742,2.793,8.127,8.127,0,0,0,2.364,2.3,72.9,72.9,0,0,0,7.675,4q8.007,3.83,10.977,7.676A14.988,14.988,0,0,1,681.766,52.7Z" transform="translate(0 -7.773)" fill="#690727"/><path d="M708.059,69.336q-20.391,0-20.391-22.383,0-11.133,5.547-17.012t15.9-5.878a30.327,30.327,0,0,1,13.594,2.968l-3.516,9.219q-2.812-1.133-5.234-1.855a16.86,16.86,0,0,0-4.844-.723q-9.3,0-9.3,13.2,0,12.813,9.3,12.813a21.2,21.2,0,0,0,6.367-.918,22.952,22.952,0,0,0,5.86-2.872v10.2a19.219,19.219,0,0,1-5.84,2.539A32.833,32.833,0,0,1,708.059,69.336Z" transform="translate(0 -7.773)" fill="#690727"/><path d="M729.021,13.594q0-5.82,6.485-5.821t6.484,5.821a5.675,5.675,0,0,1-1.621,4.316,6.813,6.813,0,0,1-4.863,1.543Q729.022,19.453,729.021,13.594Zm12.422,54.961H729.529V24.883h11.914Z" transform="translate(0 -7.773)" fill="#690727"/><path d="M771.908,69.336q-10.547,0-16.484-5.82t-5.938-16.485q0-10.976,5.489-16.972t15.175-6q9.258,0,14.414,5.273t5.157,14.57v5.782H761.557a11.464,11.464,0,0,0,3.007,7.929q2.813,2.853,7.891,2.852a32.753,32.753,0,0,0,7.461-.821,37.286,37.286,0,0,0,7.344-2.617V66.25a27.993,27.993,0,0,1-6.68,2.324A42.106,42.106,0,0,1,771.908,69.336Zm-1.679-36.8a7.558,7.558,0,0,0-5.938,2.4,11.114,11.114,0,0,0-2.461,6.817h16.719a9.935,9.935,0,0,0-2.3-6.817A7.8,7.8,0,0,0,770.229,32.539Z" transform="translate(0 -7.773)" fill="#690727"/><path d="M838.353,68.555H826.438V43.047q0-4.726-1.679-7.09t-5.352-2.363q-5,0-7.226,3.34t-2.227,11.074V68.555H798.04V24.883h9.1l1.6,5.586h.664a12.582,12.582,0,0,1,5.489-4.785,18.7,18.7,0,0,1,7.949-1.621q7.617,0,11.562,4.121t3.946,11.894Z" transform="translate(0 -7.773)" fill="#690727"/><path d="M866.713,69.336q-20.391,0-20.391-22.383,0-11.133,5.547-17.012t15.9-5.878a30.323,30.323,0,0,1,13.593,2.968l-3.515,9.219q-2.812-1.133-5.235-1.855a16.858,16.858,0,0,0-4.843-.723q-9.3,0-9.3,13.2,0,12.813,9.3,12.813a21.2,21.2,0,0,0,6.367-.918,22.962,22.962,0,0,0,5.859-2.872v10.2a19.219,19.219,0,0,1-5.84,2.539A32.827,32.827,0,0,1,866.713,69.336Z" transform="translate(0 -7.773)" fill="#690727"/><path d="M907.805,69.336q-10.548,0-16.485-5.82t-5.937-16.485q0-10.976,5.488-16.972t15.176-6q9.258,0,14.414,5.273t5.156,14.57v5.782H897.453a11.464,11.464,0,0,0,3.008,7.929q2.813,2.853,7.891,2.852a32.759,32.759,0,0,0,7.461-.821,37.278,37.278,0,0,0,7.343-2.617V66.25a27.986,27.986,0,0,1-6.679,2.324A42.113,42.113,0,0,1,907.805,69.336Zm-1.68-36.8a7.556,7.556,0,0,0-5.937,2.4,11.114,11.114,0,0,0-2.461,6.817h16.718a9.934,9.934,0,0,0-2.3-6.817A7.808,7.808,0,0,0,906.125,32.539Z" transform="translate(0 -7.773)" fill="#690727"/></svg>